<?xml version="1.0" encoding="utf-8" standalone="no"?>
<!DOCTYPE svg PUBLIC "-//W3C//DTD SVG 1.1//EN"
  "http://www.w3.org/Graphics/SVG/1.1/DTD/svg11.dtd">
<!-- Created with matplotlib (http://matplotlib.org/) -->
<svg height="549pt" version="1.1" viewBox="0 0 729 549" width="729pt" xmlns="http://www.w3.org/2000/svg" xmlns:xlink="http://www.w3.org/1999/xlink">
 <defs>
  <style type="text/css">
*{stroke-linecap:square;stroke-linejoin:round;}
  </style>
 </defs>
 <g id="figure_1">
  <g id="patch_1">
   <path d="
M0 549
L729 549
L729 0
L0 0
z
" style="fill:#ffffff;"/>
  </g>
  <g id="axes_1">
   <g id="patch_2">
    <path d="
M72.9 494.1
L692.55 494.1
L692.55 54.9
L72.9 54.9
z
" style="fill:#ffffff;"/>
   </g>
   <g id="LineCollection_1">
    <defs>
     <path d="
M213.61 -72.2746
L213.61 -158.305" id="C0_0_8ae00bf4e9"/>
     <path d="
M213.61 -67.8638
L213.61 -153.017" id="C0_1_de1d3d3d5e"/>
     <path d="
M217.272 -117.635
L217.272 -213.873" id="C0_2_d0bd600822"/>
     <path d="
M264.871 -164.082
L264.871 -270.14" id="C0_3_347f6b91fc"/>
     <path d="
M365.163 -214.621
L365.163 -332.465" id="C0_4_cec6246450"/>
     <path d="
M383.789 -226.813
L383.789 -346.617" id="C0_5_ba7bf71d9d"/>
     <path d="
M408.182 -266.986
L408.182 -395.718" id="C0_6_2ca6c61a96"/>
     <path d="
M432.372 -312.252
L432.372 -451.077" id="C0_7_e4b70194bf"/>
     <path d="
M476.549 -327.538
L476.549 -469.756" id="C0_8_480f111229"/>
     <path d="
M552.554 -292.538
L552.554 -427.89" id="C0_9_4b72efe779"/>
    </defs>
    <g clip-path="url(#p1843e9562e)">
     <use style="fill:none;stroke:#000000;stroke-linecap:butt;" x="0" xlink:href="#C0_0_8ae00bf4e9" y="549.0"/>
    </g>
    <g clip-path="url(#p1843e9562e)">
     <use style="fill:none;stroke:#000000;stroke-linecap:butt;" x="0" xlink:href="#C0_1_de1d3d3d5e" y="549.0"/>
    </g>
    <g clip-path="url(#p1843e9562e)">
     <use style="fill:none;stroke:#000000;stroke-linecap:butt;" x="0" xlink:href="#C0_2_d0bd600822" y="549.0"/>
    </g>
    <g clip-path="url(#p1843e9562e)">
     <use style="fill:none;stroke:#000000;stroke-linecap:butt;" x="0" xlink:href="#C0_3_347f6b91fc" y="549.0"/>
    </g>
    <g clip-path="url(#p1843e9562e)">
     <use style="fill:none;stroke:#000000;stroke-linecap:butt;" x="0" xlink:href="#C0_4_cec6246450" y="549.0"/>
    </g>
    <g clip-path="url(#p1843e9562e)">
     <use style="fill:none;stroke:#000000;stroke-linecap:butt;" x="0" xlink:href="#C0_5_ba7bf71d9d" y="549.0"/>
    </g>
    <g clip-path="url(#p1843e9562e)">
     <use style="fill:none;stroke:#000000;stroke-linecap:butt;" x="0" xlink:href="#C0_6_2ca6c61a96" y="549.0"/>
    </g>
    <g clip-path="url(#p1843e9562e)">
     <use style="fill:none;stroke:#000000;stroke-linecap:butt;" x="0" xlink:href="#C0_7_e4b70194bf" y="549.0"/>
    </g>
    <g clip-path="url(#p1843e9562e)">
     <use style="fill:none;stroke:#000000;stroke-linecap:butt;" x="0" xlink:href="#C0_8_480f111229" y="549.0"/>
    </g>
    <g clip-path="url(#p1843e9562e)">
     <use style="fill:none;stroke:#000000;stroke-linecap:butt;" x="0" xlink:href="#C0_9_4b72efe779" y="549.0"/>
    </g>
   </g>
   <g id="line2d_1">
    <defs>
     <path d="
M3 1.83697e-16
L-3 -1.83697e-16" id="m057d09ee0a" style="stroke:#000000;stroke-linecap:butt;stroke-width:0.5;"/>
    </defs>
    <g clip-path="url(#p1843e9562e)">
     <use style="stroke:#000000;stroke-linecap:butt;stroke-width:0.5;" x="213.61037758" xlink:href="#m057d09ee0a" y="476.725417072"/>
     <use style="stroke:#000000;stroke-linecap:butt;stroke-width:0.5;" x="213.61037758" xlink:href="#m057d09ee0a" y="481.136176528"/>
     <use style="stroke:#000000;stroke-linecap:butt;stroke-width:0.5;" x="217.272254396" xlink:href="#m057d09ee0a" y="431.364522343"/>
     <use style="stroke:#000000;stroke-linecap:butt;stroke-width:0.5;" x="264.871479106" xlink:href="#m057d09ee0a" y="384.917706207"/>
     <use style="stroke:#000000;stroke-linecap:butt;stroke-width:0.5;" x="365.162745023" xlink:href="#m057d09ee0a" y="334.379094729"/>
     <use style="stroke:#000000;stroke-linecap:butt;stroke-width:0.5;" x="383.788728022" xlink:href="#m057d09ee0a" y="322.186873797"/>
     <use style="stroke:#000000;stroke-linecap:butt;stroke-width:0.5;" x="408.182140932" xlink:href="#m057d09ee0a" y="282.014301651"/>
     <use style="stroke:#000000;stroke-linecap:butt;stroke-width:0.5;" x="432.371913515" xlink:href="#m057d09ee0a" y="236.747614444"/>
     <use style="stroke:#000000;stroke-linecap:butt;stroke-width:0.5;" x="476.548790325" xlink:href="#m057d09ee0a" y="221.461658531"/>
     <use style="stroke:#000000;stroke-linecap:butt;stroke-width:0.5;" x="552.554395327" xlink:href="#m057d09ee0a" y="256.462114116"/>
    </g>
   </g>
   <g id="line2d_2">
    <g clip-path="url(#p1843e9562e)">
     <use style="stroke:#000000;stroke-linecap:butt;stroke-width:0.5;" x="213.61037758" xlink:href="#m057d09ee0a" y="390.694582928"/>
     <use style="stroke:#000000;stroke-linecap:butt;stroke-width:0.5;" x="213.61037758" xlink:href="#m057d09ee0a" y="395.982823472"/>
     <use style="stroke:#000000;stroke-linecap:butt;stroke-width:0.5;" x="217.272254396" xlink:href="#m057d09ee0a" y="335.127317657"/>
     <use style="stroke:#000000;stroke-linecap:butt;stroke-width:0.5;" x="264.871479106" xlink:href="#m057d09ee0a" y="278.859893793"/>
     <use style="stroke:#000000;stroke-linecap:butt;stroke-width:0.5;" x="365.162745023" xlink:href="#m057d09ee0a" y="216.53536681"/>
     <use style="stroke:#000000;stroke-linecap:butt;stroke-width:0.5;" x="383.788728022" xlink:href="#m057d09ee0a" y="202.382626203"/>
     <use style="stroke:#000000;stroke-linecap:butt;stroke-width:0.5;" x="408.182140932" xlink:href="#m057d09ee0a" y="153.281698349"/>
     <use style="stroke:#000000;stroke-linecap:butt;stroke-width:0.5;" x="432.371913515" xlink:href="#m057d09ee0a" y="97.9227855564"/>
     <use style="stroke:#000000;stroke-linecap:butt;stroke-width:0.5;" x="476.548790325" xlink:href="#m057d09ee0a" y="79.2439414693"/>
     <use style="stroke:#000000;stroke-linecap:butt;stroke-width:0.5;" x="552.554395327" xlink:href="#m057d09ee0a" y="121.110457312"/>
    </g>
   </g>
   <g id="line2d_3">
    <defs>
     <path d="
M0 3
C0.795609 3 1.55874 2.6839 2.12132 2.12132
C2.6839 1.55874 3 0.795609 3 0
C3 -0.795609 2.6839 -1.55874 2.12132 -2.12132
C1.55874 -2.6839 0.795609 -3 0 -3
C-0.795609 -3 -1.55874 -2.6839 -2.12132 -2.12132
C-2.6839 -1.55874 -3 -0.795609 -3 0
C-3 0.795609 -2.6839 1.55874 -2.12132 2.12132
C-1.55874 2.6839 -0.795609 3 0 3
z
" id="m5e07fe0cb8" style="stroke:#000000;stroke-linecap:butt;stroke-width:0.5;"/>
    </defs>
    <g clip-path="url(#p1843e9562e)">
     <use style="stroke:#000000;stroke-linecap:butt;stroke-width:0.5;" x="213.61037758" xlink:href="#m5e07fe0cb8" y="433.71"/>
     <use style="stroke:#000000;stroke-linecap:butt;stroke-width:0.5;" x="213.61037758" xlink:href="#m5e07fe0cb8" y="438.5595"/>
     <use style="stroke:#000000;stroke-linecap:butt;stroke-width:0.5;" x="217.272254396" xlink:href="#m5e07fe0cb8" y="383.24592"/>
     <use style="stroke:#000000;stroke-linecap:butt;stroke-width:0.5;" x="264.871479106" xlink:href="#m5e07fe0cb8" y="331.8888"/>
     <use style="stroke:#000000;stroke-linecap:butt;stroke-width:0.5;" x="365.162745023" xlink:href="#m5e07fe0cb8" y="275.457230769"/>
     <use style="stroke:#000000;stroke-linecap:butt;stroke-width:0.5;" x="383.788728022" xlink:href="#m5e07fe0cb8" y="262.28475"/>
     <use style="stroke:#000000;stroke-linecap:butt;stroke-width:0.5;" x="408.182140932" xlink:href="#m5e07fe0cb8" y="217.648"/>
     <use style="stroke:#000000;stroke-linecap:butt;stroke-width:0.5;" x="432.371913515" xlink:href="#m5e07fe0cb8" y="167.3352"/>
     <use style="stroke:#000000;stroke-linecap:butt;stroke-width:0.5;" x="476.548790325" xlink:href="#m5e07fe0cb8" y="150.3528"/>
     <use style="stroke:#000000;stroke-linecap:butt;stroke-width:0.5;" x="552.554395327" xlink:href="#m5e07fe0cb8" y="188.786285714"/>
    </g>
   </g>
   <g id="matplotlib.axis_1">
    <g id="xtick_1">
     <g id="line2d_4">
      <path clip-path="url(#p1843e9562e)" d="
M72.9 494.1
L72.9 54.9" style="fill:none;stroke:#000000;stroke-dasharray:1.000000,3.000000;stroke-dashoffset:0.0;stroke-linecap:butt;stroke-width:0.5;"/>
     </g>
     <g id="line2d_5">
      <defs>
       <path d="
M0 0
L0 -4" id="mcb557df647" style="stroke:#000000;stroke-linecap:butt;stroke-width:0.5;"/>
      </defs>
      <g>
       <use style="stroke:#000000;stroke-linecap:butt;stroke-width:0.5;" x="72.9" xlink:href="#mcb557df647" y="494.1"/>
      </g>
     </g>
     <g id="line2d_6">
      <defs>
       <path d="
M0 0
L0 4" id="mdad270ee8e" style="stroke:#000000;stroke-linecap:butt;stroke-width:0.5;"/>
      </defs>
      <g>
       <use style="stroke:#000000;stroke-linecap:butt;stroke-width:0.5;" x="72.9" xlink:href="#mdad270ee8e" y="54.9"/>
      </g>
     </g>
     <g id="text_1">
      <!-- $\mathdefault{10^{-3}}$ -->
      <defs>
       <path d="
M12.4062 8.29688
L28.5156 8.29688
L28.5156 63.9219
L10.9844 60.4062
L10.9844 69.3906
L28.4219 72.9062
L38.2812 72.9062
L38.2812 8.29688
L54.3906 8.29688
L54.3906 0
L12.4062 0
z
" id="DejaVuSans-31"/>
       <path d="
M31.7812 66.4062
Q24.1719 66.4062 20.3281 58.9062
Q16.5 51.4219 16.5 36.375
Q16.5 21.3906 20.3281 13.8906
Q24.1719 6.39062 31.7812 6.39062
Q39.4531 6.39062 43.2812 13.8906
Q47.125 21.3906 47.125 36.375
Q47.125 51.4219 43.2812 58.9062
Q39.4531 66.4062 31.7812 66.4062
M31.7812 74.2188
Q44.0469 74.2188 50.5156 64.5156
Q56.9844 54.8281 56.9844 36.375
Q56.9844 17.9688 50.5156 8.26562
Q44.0469 -1.42188 31.7812 -1.42188
Q19.5312 -1.42188 13.0625 8.26562
Q6.59375 17.9688 6.59375 36.375
Q6.59375 54.8281 13.0625 64.5156
Q19.5312 74.2188 31.7812 74.2188" id="DejaVuSans-30"/>
       <path d="
M40.5781 39.3125
Q47.6562 37.7969 51.625 33
Q55.6094 28.2188 55.6094 21.1875
Q55.6094 10.4062 48.1875 4.48438
Q40.7656 -1.42188 27.0938 -1.42188
Q22.5156 -1.42188 17.6562 -0.515625
Q12.7969 0.390625 7.625 2.20312
L7.625 11.7188
Q11.7188 9.32812 16.5938 8.10938
Q21.4844 6.89062 26.8125 6.89062
Q36.0781 6.89062 40.9375 10.5469
Q45.7969 14.2031 45.7969 21.1875
Q45.7969 27.6406 41.2812 31.2656
Q36.7656 34.9062 28.7188 34.9062
L20.2188 34.9062
L20.2188 43.0156
L29.1094 43.0156
Q36.375 43.0156 40.2344 45.9219
Q44.0938 48.8281 44.0938 54.2969
Q44.0938 59.9062 40.1094 62.9062
Q36.1406 65.9219 28.7188 65.9219
Q24.6562 65.9219 20.0156 65.0312
Q15.375 64.1562 9.8125 62.3125
L9.8125 71.0938
Q15.4375 72.6562 20.3438 73.4375
Q25.25 74.2188 29.5938 74.2188
Q40.8281 74.2188 47.3594 69.1094
Q53.9062 64.0156 53.9062 55.3281
Q53.9062 49.2656 50.4375 45.0938
Q46.9688 40.9219 40.5781 39.3125" id="DejaVuSans-33"/>
       <path d="
M4.89062 31.3906
L31.2031 31.3906
L31.2031 23.3906
L4.89062 23.3906
z
" id="DejaVuSans-2d"/>
      </defs>
      <g transform="translate(60.42 511.54)scale(0.12 -0.12)">
       <use transform="translate(0.0 2.234375)" xlink:href="#DejaVuSans-31"/>
       <use transform="translate(63.623046875 2.234375)" xlink:href="#DejaVuSans-30"/>
       <use transform="translate(127.24609375 60.046875)scale(0.7)" xlink:href="#DejaVuSans-2d"/>
       <use transform="translate(152.504882812 60.046875)scale(0.7)" xlink:href="#DejaVuSans-33"/>
      </g>
     </g>
    </g>
    <g id="xtick_2">
     <g id="line2d_7">
      <path clip-path="url(#p1843e9562e)" d="
M279.45 494.1
L279.45 54.9" style="fill:none;stroke:#000000;stroke-dasharray:1.000000,3.000000;stroke-dashoffset:0.0;stroke-linecap:butt;stroke-width:0.5;"/>
     </g>
     <g id="line2d_8">
      <g>
       <use style="stroke:#000000;stroke-linecap:butt;stroke-width:0.5;" x="279.45" xlink:href="#mcb557df647" y="494.1"/>
      </g>
     </g>
     <g id="line2d_9">
      <g>
       <use style="stroke:#000000;stroke-linecap:butt;stroke-width:0.5;" x="279.45" xlink:href="#mdad270ee8e" y="54.9"/>
      </g>
     </g>
     <g id="text_2">
      <!-- $\mathdefault{10^{-2}}$ -->
      <defs>
       <path d="
M19.1875 8.29688
L53.6094 8.29688
L53.6094 0
L7.32812 0
L7.32812 8.29688
Q12.9375 14.1094 22.625 23.8906
Q32.3281 33.6875 34.8125 36.5312
Q39.5469 41.8438 41.4219 45.5312
Q43.3125 49.2188 43.3125 52.7812
Q43.3125 58.5938 39.2344 62.25
Q35.1562 65.9219 28.6094 65.9219
Q23.9688 65.9219 18.8125 64.3125
Q13.6719 62.7031 7.8125 59.4219
L7.8125 69.3906
Q13.7656 71.7812 18.9375 73
Q24.125 74.2188 28.4219 74.2188
Q39.75 74.2188 46.4844 68.5469
Q53.2188 62.8906 53.2188 53.4219
Q53.2188 48.9219 51.5312 44.8906
Q49.8594 40.875 45.4062 35.4062
Q44.1875 33.9844 37.6406 27.2188
Q31.1094 20.4531 19.1875 8.29688" id="DejaVuSans-32"/>
      </defs>
      <g transform="translate(266.97 511.54)scale(0.12 -0.12)">
       <use transform="translate(0.0 2.234375)" xlink:href="#DejaVuSans-31"/>
       <use transform="translate(63.623046875 2.234375)" xlink:href="#DejaVuSans-30"/>
       <use transform="translate(127.24609375 60.046875)scale(0.7)" xlink:href="#DejaVuSans-2d"/>
       <use transform="translate(152.504882812 60.046875)scale(0.7)" xlink:href="#DejaVuSans-32"/>
      </g>
     </g>
    </g>
    <g id="xtick_3">
     <g id="line2d_10">
      <path clip-path="url(#p1843e9562e)" d="
M486 494.1
L486 54.9" style="fill:none;stroke:#000000;stroke-dasharray:1.000000,3.000000;stroke-dashoffset:0.0;stroke-linecap:butt;stroke-width:0.5;"/>
     </g>
     <g id="line2d_11">
      <g>
       <use style="stroke:#000000;stroke-linecap:butt;stroke-width:0.5;" x="486.0" xlink:href="#mcb557df647" y="494.1"/>
      </g>
     </g>
     <g id="line2d_12">
      <g>
       <use style="stroke:#000000;stroke-linecap:butt;stroke-width:0.5;" x="486.0" xlink:href="#mdad270ee8e" y="54.9"/>
      </g>
     </g>
     <g id="text_3">
      <!-- $\mathdefault{10^{-1}}$ -->
      <g transform="translate(473.52 511.42)scale(0.12 -0.12)">
       <use transform="translate(0.0 2.153125)" xlink:href="#DejaVuSans-31"/>
       <use transform="translate(63.623046875 2.153125)" xlink:href="#DejaVuSans-30"/>
       <use transform="translate(127.24609375 59.965625)scale(0.7)" xlink:href="#DejaVuSans-2d"/>
       <use transform="translate(152.504882812 59.965625)scale(0.7)" xlink:href="#DejaVuSans-31"/>
      </g>
     </g>
    </g>
    <g id="xtick_4">
     <g id="line2d_13">
      <path clip-path="url(#p1843e9562e)" d="
M692.55 494.1
L692.55 54.9" style="fill:none;stroke:#000000;stroke-dasharray:1.000000,3.000000;stroke-dashoffset:0.0;stroke-linecap:butt;stroke-width:0.5;"/>
     </g>
     <g id="line2d_14">
      <g>
       <use style="stroke:#000000;stroke-linecap:butt;stroke-width:0.5;" x="692.55" xlink:href="#mcb557df647" y="494.1"/>
      </g>
     </g>
     <g id="line2d_15">
      <g>
       <use style="stroke:#000000;stroke-linecap:butt;stroke-width:0.5;" x="692.55" xlink:href="#mdad270ee8e" y="54.9"/>
      </g>
     </g>
     <g id="text_4">
      <!-- $\mathdefault{10^{0}}$ -->
      <g transform="translate(681.57 511.54)scale(0.12 -0.12)">
       <use transform="translate(0.0 2.234375)" xlink:href="#DejaVuSans-31"/>
       <use transform="translate(63.623046875 2.234375)" xlink:href="#DejaVuSans-30"/>
       <use transform="translate(127.24609375 60.046875)scale(0.7)" xlink:href="#DejaVuSans-30"/>
      </g>
     </g>
    </g>
    <g id="xtick_5">
     <g id="line2d_16">
      <defs>
       <path d="
M0 0
L0 -2" id="m6f8f3139b3" style="stroke:#000000;stroke-linecap:butt;stroke-width:0.5;"/>
      </defs>
      <g>
       <use style="stroke:#000000;stroke-linecap:butt;stroke-width:0.5;" x="135.077745604" xlink:href="#m6f8f3139b3" y="494.1"/>
      </g>
     </g>
     <g id="line2d_17">
      <defs>
       <path d="
M0 0
L0 2" id="md27378e979" style="stroke:#000000;stroke-linecap:butt;stroke-width:0.5;"/>
      </defs>
      <g>
       <use style="stroke:#000000;stroke-linecap:butt;stroke-width:0.5;" x="135.077745604" xlink:href="#md27378e979" y="54.9"/>
      </g>
     </g>
    </g>
    <g id="xtick_6">
     <g id="line2d_18">
      <g>
       <use style="stroke:#000000;stroke-linecap:butt;stroke-width:0.5;" x="171.449395162" xlink:href="#m6f8f3139b3" y="494.1"/>
      </g>
     </g>
     <g id="line2d_19">
      <g>
       <use style="stroke:#000000;stroke-linecap:butt;stroke-width:0.5;" x="171.449395162" xlink:href="#md27378e979" y="54.9"/>
      </g>
     </g>
    </g>
    <g id="xtick_7">
     <g id="line2d_20">
      <g>
       <use style="stroke:#000000;stroke-linecap:butt;stroke-width:0.5;" x="197.255491209" xlink:href="#m6f8f3139b3" y="494.1"/>
      </g>
     </g>
     <g id="line2d_21">
      <g>
       <use style="stroke:#000000;stroke-linecap:butt;stroke-width:0.5;" x="197.255491209" xlink:href="#md27378e979" y="54.9"/>
      </g>
     </g>
    </g>
    <g id="xtick_8">
     <g id="line2d_22">
      <g>
       <use style="stroke:#000000;stroke-linecap:butt;stroke-width:0.5;" x="217.272254396" xlink:href="#m6f8f3139b3" y="494.1"/>
      </g>
     </g>
     <g id="line2d_23">
      <g>
       <use style="stroke:#000000;stroke-linecap:butt;stroke-width:0.5;" x="217.272254396" xlink:href="#md27378e979" y="54.9"/>
      </g>
     </g>
    </g>
    <g id="xtick_9">
     <g id="line2d_24">
      <g>
       <use style="stroke:#000000;stroke-linecap:butt;stroke-width:0.5;" x="233.627140767" xlink:href="#m6f8f3139b3" y="494.1"/>
      </g>
     </g>
     <g id="line2d_25">
      <g>
       <use style="stroke:#000000;stroke-linecap:butt;stroke-width:0.5;" x="233.627140767" xlink:href="#md27378e979" y="54.9"/>
      </g>
     </g>
    </g>
    <g id="xtick_10">
     <g id="line2d_26">
      <g>
       <use style="stroke:#000000;stroke-linecap:butt;stroke-width:0.5;" x="247.455000165" xlink:href="#m6f8f3139b3" y="494.1"/>
      </g>
     </g>
     <g id="line2d_27">
      <g>
       <use style="stroke:#000000;stroke-linecap:butt;stroke-width:0.5;" x="247.455000165" xlink:href="#md27378e979" y="54.9"/>
      </g>
     </g>
    </g>
    <g id="xtick_11">
     <g id="line2d_28">
      <g>
       <use style="stroke:#000000;stroke-linecap:butt;stroke-width:0.5;" x="259.433236813" xlink:href="#m6f8f3139b3" y="494.1"/>
      </g>
     </g>
     <g id="line2d_29">
      <g>
       <use style="stroke:#000000;stroke-linecap:butt;stroke-width:0.5;" x="259.433236813" xlink:href="#md27378e979" y="54.9"/>
      </g>
     </g>
    </g>
    <g id="xtick_12">
     <g id="line2d_30">
      <g>
       <use style="stroke:#000000;stroke-linecap:butt;stroke-width:0.5;" x="269.998790325" xlink:href="#m6f8f3139b3" y="494.1"/>
      </g>
     </g>
     <g id="line2d_31">
      <g>
       <use style="stroke:#000000;stroke-linecap:butt;stroke-width:0.5;" x="269.998790325" xlink:href="#md27378e979" y="54.9"/>
      </g>
     </g>
    </g>
    <g id="xtick_13">
     <g id="line2d_32">
      <g>
       <use style="stroke:#000000;stroke-linecap:butt;stroke-width:0.5;" x="341.627745604" xlink:href="#m6f8f3139b3" y="494.1"/>
      </g>
     </g>
     <g id="line2d_33">
      <g>
       <use style="stroke:#000000;stroke-linecap:butt;stroke-width:0.5;" x="341.627745604" xlink:href="#md27378e979" y="54.9"/>
      </g>
     </g>
    </g>
    <g id="xtick_14">
     <g id="line2d_34">
      <g>
       <use style="stroke:#000000;stroke-linecap:butt;stroke-width:0.5;" x="377.999395162" xlink:href="#m6f8f3139b3" y="494.1"/>
      </g>
     </g>
     <g id="line2d_35">
      <g>
       <use style="stroke:#000000;stroke-linecap:butt;stroke-width:0.5;" x="377.999395162" xlink:href="#md27378e979" y="54.9"/>
      </g>
     </g>
    </g>
    <g id="xtick_15">
     <g id="line2d_36">
      <g>
       <use style="stroke:#000000;stroke-linecap:butt;stroke-width:0.5;" x="403.805491209" xlink:href="#m6f8f3139b3" y="494.1"/>
      </g>
     </g>
     <g id="line2d_37">
      <g>
       <use style="stroke:#000000;stroke-linecap:butt;stroke-width:0.5;" x="403.805491209" xlink:href="#md27378e979" y="54.9"/>
      </g>
     </g>
    </g>
    <g id="xtick_16">
     <g id="line2d_38">
      <g>
       <use style="stroke:#000000;stroke-linecap:butt;stroke-width:0.5;" x="423.822254396" xlink:href="#m6f8f3139b3" y="494.1"/>
      </g>
     </g>
     <g id="line2d_39">
      <g>
       <use style="stroke:#000000;stroke-linecap:butt;stroke-width:0.5;" x="423.822254396" xlink:href="#md27378e979" y="54.9"/>
      </g>
     </g>
    </g>
    <g id="xtick_17">
     <g id="line2d_40">
      <g>
       <use style="stroke:#000000;stroke-linecap:butt;stroke-width:0.5;" x="440.177140767" xlink:href="#m6f8f3139b3" y="494.1"/>
      </g>
     </g>
     <g id="line2d_41">
      <g>
       <use style="stroke:#000000;stroke-linecap:butt;stroke-width:0.5;" x="440.177140767" xlink:href="#md27378e979" y="54.9"/>
      </g>
     </g>
    </g>
    <g id="xtick_18">
     <g id="line2d_42">
      <g>
       <use style="stroke:#000000;stroke-linecap:butt;stroke-width:0.5;" x="454.005000165" xlink:href="#m6f8f3139b3" y="494.1"/>
      </g>
     </g>
     <g id="line2d_43">
      <g>
       <use style="stroke:#000000;stroke-linecap:butt;stroke-width:0.5;" x="454.005000165" xlink:href="#md27378e979" y="54.9"/>
      </g>
     </g>
    </g>
    <g id="xtick_19">
     <g id="line2d_44">
      <g>
       <use style="stroke:#000000;stroke-linecap:butt;stroke-width:0.5;" x="465.983236813" xlink:href="#m6f8f3139b3" y="494.1"/>
      </g>
     </g>
     <g id="line2d_45">
      <g>
       <use style="stroke:#000000;stroke-linecap:butt;stroke-width:0.5;" x="465.983236813" xlink:href="#md27378e979" y="54.9"/>
      </g>
     </g>
    </g>
    <g id="xtick_20">
     <g id="line2d_46">
      <g>
       <use style="stroke:#000000;stroke-linecap:butt;stroke-width:0.5;" x="476.548790325" xlink:href="#m6f8f3139b3" y="494.1"/>
      </g>
     </g>
     <g id="line2d_47">
      <g>
       <use style="stroke:#000000;stroke-linecap:butt;stroke-width:0.5;" x="476.548790325" xlink:href="#md27378e979" y="54.9"/>
      </g>
     </g>
    </g>
    <g id="xtick_21">
     <g id="line2d_48">
      <g>
       <use style="stroke:#000000;stroke-linecap:butt;stroke-width:0.5;" x="548.177745604" xlink:href="#m6f8f3139b3" y="494.1"/>
      </g>
     </g>
     <g id="line2d_49">
      <g>
       <use style="stroke:#000000;stroke-linecap:butt;stroke-width:0.5;" x="548.177745604" xlink:href="#md27378e979" y="54.9"/>
      </g>
     </g>
    </g>
    <g id="xtick_22">
     <g id="line2d_50">
      <g>
       <use style="stroke:#000000;stroke-linecap:butt;stroke-width:0.5;" x="584.549395162" xlink:href="#m6f8f3139b3" y="494.1"/>
      </g>
     </g>
     <g id="line2d_51">
      <g>
       <use style="stroke:#000000;stroke-linecap:butt;stroke-width:0.5;" x="584.549395162" xlink:href="#md27378e979" y="54.9"/>
      </g>
     </g>
    </g>
    <g id="xtick_23">
     <g id="line2d_52">
      <g>
       <use style="stroke:#000000;stroke-linecap:butt;stroke-width:0.5;" x="610.355491209" xlink:href="#m6f8f3139b3" y="494.1"/>
      </g>
     </g>
     <g id="line2d_53">
      <g>
       <use style="stroke:#000000;stroke-linecap:butt;stroke-width:0.5;" x="610.355491209" xlink:href="#md27378e979" y="54.9"/>
      </g>
     </g>
    </g>
    <g id="xtick_24">
     <g id="line2d_54">
      <g>
       <use style="stroke:#000000;stroke-linecap:butt;stroke-width:0.5;" x="630.372254396" xlink:href="#m6f8f3139b3" y="494.1"/>
      </g>
     </g>
     <g id="line2d_55">
      <g>
       <use style="stroke:#000000;stroke-linecap:butt;stroke-width:0.5;" x="630.372254396" xlink:href="#md27378e979" y="54.9"/>
      </g>
     </g>
    </g>
    <g id="xtick_25">
     <g id="line2d_56">
      <g>
       <use style="stroke:#000000;stroke-linecap:butt;stroke-width:0.5;" x="646.727140767" xlink:href="#m6f8f3139b3" y="494.1"/>
      </g>
     </g>
     <g id="line2d_57">
      <g>
       <use style="stroke:#000000;stroke-linecap:butt;stroke-width:0.5;" x="646.727140767" xlink:href="#md27378e979" y="54.9"/>
      </g>
     </g>
    </g>
    <g id="xtick_26">
     <g id="line2d_58">
      <g>
       <use style="stroke:#000000;stroke-linecap:butt;stroke-width:0.5;" x="660.555000165" xlink:href="#m6f8f3139b3" y="494.1"/>
      </g>
     </g>
     <g id="line2d_59">
      <g>
       <use style="stroke:#000000;stroke-linecap:butt;stroke-width:0.5;" x="660.555000165" xlink:href="#md27378e979" y="54.9"/>
      </g>
     </g>
    </g>
    <g id="xtick_27">
     <g id="line2d_60">
      <g>
       <use style="stroke:#000000;stroke-linecap:butt;stroke-width:0.5;" x="672.533236813" xlink:href="#m6f8f3139b3" y="494.1"/>
      </g>
     </g>
     <g id="line2d_61">
      <g>
       <use style="stroke:#000000;stroke-linecap:butt;stroke-width:0.5;" x="672.533236813" xlink:href="#md27378e979" y="54.9"/>
      </g>
     </g>
    </g>
    <g id="xtick_28">
     <g id="line2d_62">
      <g>
       <use style="stroke:#000000;stroke-linecap:butt;stroke-width:0.5;" x="683.098790325" xlink:href="#m6f8f3139b3" y="494.1"/>
      </g>
     </g>
     <g id="line2d_63">
      <g>
       <use style="stroke:#000000;stroke-linecap:butt;stroke-width:0.5;" x="683.098790325" xlink:href="#md27378e979" y="54.9"/>
      </g>
     </g>
    </g>
    <g id="text_5">
     <!-- Pressione [Pa] -->
     <defs>
      <path d="
M56.2031 29.5938
L56.2031 25.2031
L14.8906 25.2031
Q15.4844 15.9219 20.4844 11.0625
Q25.4844 6.20312 34.4219 6.20312
Q39.5938 6.20312 44.4531 7.46875
Q49.3125 8.73438 54.1094 11.2812
L54.1094 2.78125
Q49.2656 0.734375 44.1875 -0.34375
Q39.1094 -1.42188 33.8906 -1.42188
Q20.7969 -1.42188 13.1562 6.1875
Q5.51562 13.8125 5.51562 26.8125
Q5.51562 40.2344 12.7656 48.1094
Q20.0156 56 32.3281 56
Q43.3594 56 49.7812 48.8906
Q56.2031 41.7969 56.2031 29.5938
M47.2188 32.2344
Q47.125 39.5938 43.0938 43.9844
Q39.0625 48.3906 32.4219 48.3906
Q24.9062 48.3906 20.3906 44.1406
Q15.875 39.8906 15.1875 32.1719
z
" id="DejaVuSans-65"/>
      <path d="
M30.6094 48.3906
Q23.3906 48.3906 19.1875 42.75
Q14.9844 37.1094 14.9844 27.2969
Q14.9844 17.4844 19.1562 11.8438
Q23.3438 6.20312 30.6094 6.20312
Q37.7969 6.20312 41.9844 11.8594
Q46.1875 17.5312 46.1875 27.2969
Q46.1875 37.0156 41.9844 42.7031
Q37.7969 48.3906 30.6094 48.3906
M30.6094 56
Q42.3281 56 49.0156 48.375
Q55.7188 40.7656 55.7188 27.2969
Q55.7188 13.875 49.0156 6.21875
Q42.3281 -1.42188 30.6094 -1.42188
Q18.8438 -1.42188 12.1719 6.21875
Q5.51562 13.875 5.51562 27.2969
Q5.51562 40.7656 12.1719 48.375
Q18.8438 56 30.6094 56" id="DejaVuSans-6f"/>
      <path d="
M8.59375 75.9844
L29.2969 75.9844
L29.2969 69
L17.5781 69
L17.5781 -6.20312
L29.2969 -6.20312
L29.2969 -13.1875
L8.59375 -13.1875
z
" id="DejaVuSans-5b"/>
      <path d="
M54.8906 33.0156
L54.8906 0
L45.9062 0
L45.9062 32.7188
Q45.9062 40.4844 42.875 44.3281
Q39.8438 48.1875 33.7969 48.1875
Q26.5156 48.1875 22.3125 43.5469
Q18.1094 38.9219 18.1094 30.9062
L18.1094 0
L9.07812 0
L9.07812 54.6875
L18.1094 54.6875
L18.1094 46.1875
Q21.3438 51.125 25.7031 53.5625
Q30.0781 56 35.7969 56
Q45.2188 56 50.0469 50.1719
Q54.8906 44.3438 54.8906 33.0156" id="DejaVuSans-6e"/>
      <path d="
M34.2812 27.4844
Q23.3906 27.4844 19.1875 25
Q14.9844 22.5156 14.9844 16.5
Q14.9844 11.7188 18.1406 8.90625
Q21.2969 6.10938 26.7031 6.10938
Q34.1875 6.10938 38.7031 11.4062
Q43.2188 16.7031 43.2188 25.4844
L43.2188 27.4844
z

M52.2031 31.2031
L52.2031 0
L43.2188 0
L43.2188 8.29688
Q40.1406 3.32812 35.5469 0.953125
Q30.9531 -1.42188 24.3125 -1.42188
Q15.9219 -1.42188 10.9531 3.29688
Q6 8.01562 6 15.9219
Q6 25.1406 12.1719 29.8281
Q18.3594 34.5156 30.6094 34.5156
L43.2188 34.5156
L43.2188 35.4062
Q43.2188 41.6094 39.1406 45
Q35.0625 48.3906 27.6875 48.3906
Q23 48.3906 18.5469 47.2656
Q14.1094 46.1406 10.0156 43.8906
L10.0156 52.2031
Q14.9375 54.1094 19.5781 55.0469
Q24.2188 56 28.6094 56
Q40.4844 56 46.3438 49.8438
Q52.2031 43.7031 52.2031 31.2031" id="DejaVuSans-61"/>
      <path d="
M30.4219 75.9844
L30.4219 -13.1875
L9.71875 -13.1875
L9.71875 -6.20312
L21.3906 -6.20312
L21.3906 69
L9.71875 69
L9.71875 75.9844
z
" id="DejaVuSans-5d"/>
      <path id="DejaVuSans-20"/>
      <path d="
M9.42188 54.6875
L18.4062 54.6875
L18.4062 0
L9.42188 0
z

M9.42188 75.9844
L18.4062 75.9844
L18.4062 64.5938
L9.42188 64.5938
z
" id="DejaVuSans-69"/>
      <path d="
M19.6719 64.7969
L19.6719 37.4062
L32.0781 37.4062
Q38.9688 37.4062 42.7188 40.9688
Q46.4844 44.5312 46.4844 51.125
Q46.4844 57.6719 42.7188 61.2344
Q38.9688 64.7969 32.0781 64.7969
z

M9.8125 72.9062
L32.0781 72.9062
Q44.3438 72.9062 50.6094 67.3594
Q56.8906 61.8125 56.8906 51.125
Q56.8906 40.3281 50.6094 34.8125
Q44.3438 29.2969 32.0781 29.2969
L19.6719 29.2969
L19.6719 0
L9.8125 0
z
" id="DejaVuSans-50"/>
      <path d="
M44.2812 53.0781
L44.2812 44.5781
Q40.4844 46.5312 36.375 47.5
Q32.2812 48.4844 27.875 48.4844
Q21.1875 48.4844 17.8438 46.4375
Q14.5 44.3906 14.5 40.2812
Q14.5 37.1562 16.8906 35.375
Q19.2812 33.5938 26.5156 31.9844
L29.5938 31.2969
Q39.1562 29.25 43.1875 25.5156
Q47.2188 21.7812 47.2188 15.0938
Q47.2188 7.46875 41.1875 3.01562
Q35.1562 -1.42188 24.6094 -1.42188
Q20.2188 -1.42188 15.4531 -0.5625
Q10.6875 0.296875 5.42188 2
L5.42188 11.2812
Q10.4062 8.6875 15.2344 7.39062
Q20.0625 6.10938 24.8125 6.10938
Q31.1562 6.10938 34.5625 8.28125
Q37.9844 10.4531 37.9844 14.4062
Q37.9844 18.0625 35.5156 20.0156
Q33.0625 21.9688 24.7031 23.7812
L21.5781 24.5156
Q13.2344 26.2656 9.51562 29.9062
Q5.8125 33.5469 5.8125 39.8906
Q5.8125 47.6094 11.2812 51.7969
Q16.75 56 26.8125 56
Q31.7812 56 36.1719 55.2656
Q40.5781 54.5469 44.2812 53.0781" id="DejaVuSans-73"/>
      <path d="
M41.1094 46.2969
Q39.5938 47.1719 37.8125 47.5781
Q36.0312 48 33.8906 48
Q26.2656 48 22.1875 43.0469
Q18.1094 38.0938 18.1094 28.8125
L18.1094 0
L9.07812 0
L9.07812 54.6875
L18.1094 54.6875
L18.1094 46.1875
Q20.9531 51.1719 25.4844 53.5781
Q30.0312 56 36.5312 56
Q37.4531 56 38.5781 55.875
Q39.7031 55.7656 41.0625 55.5156
z
" id="DejaVuSans-72"/>
     </defs>
     <g transform="translate(334.05421875 528.1778125)scale(0.14 -0.14)">
      <use xlink:href="#DejaVuSans-50"/>
      <use x="58.552734375" xlink:href="#DejaVuSans-72"/>
      <use x="97.416015625" xlink:href="#DejaVuSans-65"/>
      <use x="158.939453125" xlink:href="#DejaVuSans-73"/>
      <use x="211.0390625" xlink:href="#DejaVuSans-73"/>
      <use x="263.138671875" xlink:href="#DejaVuSans-69"/>
      <use x="290.921875" xlink:href="#DejaVuSans-6f"/>
      <use x="352.103515625" xlink:href="#DejaVuSans-6e"/>
      <use x="415.482421875" xlink:href="#DejaVuSans-65"/>
      <use x="477.005859375" xlink:href="#DejaVuSans-20"/>
      <use x="508.79296875" xlink:href="#DejaVuSans-5b"/>
      <use x="547.806640625" xlink:href="#DejaVuSans-50"/>
      <use x="603.609375" xlink:href="#DejaVuSans-61"/>
      <use x="664.888671875" xlink:href="#DejaVuSans-5d"/>
     </g>
    </g>
   </g>
   <g id="matplotlib.axis_2">
    <g id="ytick_1">
     <g id="line2d_64">
      <path clip-path="url(#p1843e9562e)" d="
M72.9 494.1
L692.55 494.1" style="fill:none;stroke:#000000;stroke-dasharray:1.000000,3.000000;stroke-dashoffset:0.0;stroke-linecap:butt;stroke-width:0.5;"/>
     </g>
     <g id="line2d_65">
      <defs>
       <path d="
M0 0
L4 0" id="mc8fcea1516" style="stroke:#000000;stroke-linecap:butt;stroke-width:0.5;"/>
      </defs>
      <g>
       <use style="stroke:#000000;stroke-linecap:butt;stroke-width:0.5;" x="72.9" xlink:href="#mc8fcea1516" y="494.1"/>
      </g>
     </g>
     <g id="line2d_66">
      <defs>
       <path d="
M0 0
L-4 0" id="m0d5b0a6425" style="stroke:#000000;stroke-linecap:butt;stroke-width:0.5;"/>
      </defs>
      <g>
       <use style="stroke:#000000;stroke-linecap:butt;stroke-width:0.5;" x="692.55" xlink:href="#m0d5b0a6425" y="494.1"/>
      </g>
     </g>
     <g id="text_6">
      <!-- 25 -->
      <defs>
       <path d="
M10.7969 72.9062
L49.5156 72.9062
L49.5156 64.5938
L19.8281 64.5938
L19.8281 46.7344
Q21.9688 47.4688 24.1094 47.8281
Q26.2656 48.1875 28.4219 48.1875
Q40.625 48.1875 47.75 41.5
Q54.8906 34.8125 54.8906 23.3906
Q54.8906 11.625 47.5625 5.09375
Q40.2344 -1.42188 26.9062 -1.42188
Q22.3125 -1.42188 17.5469 -0.640625
Q12.7969 0.140625 7.71875 1.70312
L7.71875 11.625
Q12.1094 9.23438 16.7969 8.0625
Q21.4844 6.89062 26.7031 6.89062
Q35.1562 6.89062 40.0781 11.3281
Q45.0156 15.7656 45.0156 23.3906
Q45.0156 31 40.0781 35.4375
Q35.1562 39.8906 26.7031 39.8906
Q22.75 39.8906 18.8125 39.0156
Q14.8906 38.1406 10.7969 36.2812
z
" id="DejaVuSans-35"/>
      </defs>
      <g transform="translate(55.5575 498.4678125)scale(0.12 -0.12)">
       <use xlink:href="#DejaVuSans-32"/>
       <use x="63.623046875" xlink:href="#DejaVuSans-35"/>
      </g>
     </g>
    </g>
    <g id="ytick_2">
     <g id="line2d_67">
      <path clip-path="url(#p1843e9562e)" d="
M72.9 420.9
L692.55 420.9" style="fill:none;stroke:#000000;stroke-dasharray:1.000000,3.000000;stroke-dashoffset:0.0;stroke-linecap:butt;stroke-width:0.5;"/>
     </g>
     <g id="line2d_68">
      <g>
       <use style="stroke:#000000;stroke-linecap:butt;stroke-width:0.5;" x="72.9" xlink:href="#mc8fcea1516" y="420.9"/>
      </g>
     </g>
     <g id="line2d_69">
      <g>
       <use style="stroke:#000000;stroke-linecap:butt;stroke-width:0.5;" x="692.55" xlink:href="#m0d5b0a6425" y="420.9"/>
      </g>
     </g>
     <g id="text_7">
      <!-- 30 -->
      <g transform="translate(55.341875 425.2678125)scale(0.12 -0.12)">
       <use xlink:href="#DejaVuSans-33"/>
       <use x="63.623046875" xlink:href="#DejaVuSans-30"/>
      </g>
     </g>
    </g>
    <g id="ytick_3">
     <g id="line2d_70">
      <path clip-path="url(#p1843e9562e)" d="
M72.9 347.7
L692.55 347.7" style="fill:none;stroke:#000000;stroke-dasharray:1.000000,3.000000;stroke-dashoffset:0.0;stroke-linecap:butt;stroke-width:0.5;"/>
     </g>
     <g id="line2d_71">
      <g>
       <use style="stroke:#000000;stroke-linecap:butt;stroke-width:0.5;" x="72.9" xlink:href="#mc8fcea1516" y="347.7"/>
      </g>
     </g>
     <g id="line2d_72">
      <g>
       <use style="stroke:#000000;stroke-linecap:butt;stroke-width:0.5;" x="692.55" xlink:href="#m0d5b0a6425" y="347.7"/>
      </g>
     </g>
     <g id="text_8">
      <!-- 35 -->
      <g transform="translate(55.593125 352.0678125)scale(0.12 -0.12)">
       <use xlink:href="#DejaVuSans-33"/>
       <use x="63.623046875" xlink:href="#DejaVuSans-35"/>
      </g>
     </g>
    </g>
    <g id="ytick_4">
     <g id="line2d_73">
      <path clip-path="url(#p1843e9562e)" d="
M72.9 274.5
L692.55 274.5" style="fill:none;stroke:#000000;stroke-dasharray:1.000000,3.000000;stroke-dashoffset:0.0;stroke-linecap:butt;stroke-width:0.5;"/>
     </g>
     <g id="line2d_74">
      <g>
       <use style="stroke:#000000;stroke-linecap:butt;stroke-width:0.5;" x="72.9" xlink:href="#mc8fcea1516" y="274.5"/>
      </g>
     </g>
     <g id="line2d_75">
      <g>
       <use style="stroke:#000000;stroke-linecap:butt;stroke-width:0.5;" x="692.55" xlink:href="#m0d5b0a6425" y="274.5"/>
      </g>
     </g>
     <g id="text_9">
      <!-- 40 -->
      <defs>
       <path d="
M37.7969 64.3125
L12.8906 25.3906
L37.7969 25.3906
z

M35.2031 72.9062
L47.6094 72.9062
L47.6094 25.3906
L58.0156 25.3906
L58.0156 17.1875
L47.6094 17.1875
L47.6094 0
L37.7969 0
L37.7969 17.1875
L4.89062 17.1875
L4.89062 26.7031
z
" id="DejaVuSans-34"/>
      </defs>
      <g transform="translate(55.01375 278.8678125)scale(0.12 -0.12)">
       <use xlink:href="#DejaVuSans-34"/>
       <use x="63.623046875" xlink:href="#DejaVuSans-30"/>
      </g>
     </g>
    </g>
    <g id="ytick_5">
     <g id="line2d_76">
      <path clip-path="url(#p1843e9562e)" d="
M72.9 201.3
L692.55 201.3" style="fill:none;stroke:#000000;stroke-dasharray:1.000000,3.000000;stroke-dashoffset:0.0;stroke-linecap:butt;stroke-width:0.5;"/>
     </g>
     <g id="line2d_77">
      <g>
       <use style="stroke:#000000;stroke-linecap:butt;stroke-width:0.5;" x="72.9" xlink:href="#mc8fcea1516" y="201.3"/>
      </g>
     </g>
     <g id="line2d_78">
      <g>
       <use style="stroke:#000000;stroke-linecap:butt;stroke-width:0.5;" x="692.55" xlink:href="#m0d5b0a6425" y="201.3"/>
      </g>
     </g>
     <g id="text_10">
      <!-- 45 -->
      <g transform="translate(55.265 205.5890625)scale(0.12 -0.12)">
       <use xlink:href="#DejaVuSans-34"/>
       <use x="63.623046875" xlink:href="#DejaVuSans-35"/>
      </g>
     </g>
    </g>
    <g id="ytick_6">
     <g id="line2d_79">
      <path clip-path="url(#p1843e9562e)" d="
M72.9 128.1
L692.55 128.1" style="fill:none;stroke:#000000;stroke-dasharray:1.000000,3.000000;stroke-dashoffset:0.0;stroke-linecap:butt;stroke-width:0.5;"/>
     </g>
     <g id="line2d_80">
      <g>
       <use style="stroke:#000000;stroke-linecap:butt;stroke-width:0.5;" x="72.9" xlink:href="#mc8fcea1516" y="128.1"/>
      </g>
     </g>
     <g id="line2d_81">
      <g>
       <use style="stroke:#000000;stroke-linecap:butt;stroke-width:0.5;" x="692.55" xlink:href="#m0d5b0a6425" y="128.1"/>
      </g>
     </g>
     <g id="text_11">
      <!-- 50 -->
      <g transform="translate(55.353125 132.4678125)scale(0.12 -0.12)">
       <use xlink:href="#DejaVuSans-35"/>
       <use x="63.623046875" xlink:href="#DejaVuSans-30"/>
      </g>
     </g>
    </g>
    <g id="ytick_7">
     <g id="line2d_82">
      <path clip-path="url(#p1843e9562e)" d="
M72.9 54.9
L692.55 54.9" style="fill:none;stroke:#000000;stroke-dasharray:1.000000,3.000000;stroke-dashoffset:0.0;stroke-linecap:butt;stroke-width:0.5;"/>
     </g>
     <g id="line2d_83">
      <g>
       <use style="stroke:#000000;stroke-linecap:butt;stroke-width:0.5;" x="72.9" xlink:href="#mc8fcea1516" y="54.9"/>
      </g>
     </g>
     <g id="line2d_84">
      <g>
       <use style="stroke:#000000;stroke-linecap:butt;stroke-width:0.5;" x="692.55" xlink:href="#m0d5b0a6425" y="54.9"/>
      </g>
     </g>
     <g id="text_12">
      <!-- 55 -->
      <g transform="translate(55.604375 59.1890625)scale(0.12 -0.12)">
       <use xlink:href="#DejaVuSans-35"/>
       <use x="63.623046875" xlink:href="#DejaVuSans-35"/>
      </g>
     </g>
    </g>
    <g id="text_13">
     <!-- Velocità di pompaggio S [$\times 10^{-3}\; m^3 s^{-1}$] -->
     <defs>
      <path d="
M9.51562 7.71875
Q11.8594 4.29688 15.8125 2.64062
Q19.7812 0.984375 24.3125 0.984375
Q30.125 0.984375 32.5625 5.9375
Q35.0156 10.8906 35.0156 17.1875
Q35.0156 20.0156 34.5 22.8438
Q33.9844 25.6875 32.7656 28.125
Q31.5469 30.5625 29.4219 32.0312
Q27.2969 33.5 24.2188 33.5
L17.5781 33.5
Q16.7031 33.5 16.7031 34.4219
L16.7031 35.2969
Q16.7031 36.0781 17.5781 36.0781
L23.0938 36.5312
Q26.6094 36.5312 28.9219 39.1562
Q31.25 41.7969 32.3281 45.5781
Q33.4062 49.3594 33.4062 52.7812
Q33.4062 57.5625 31.1562 60.6406
Q28.9062 63.7188 24.3125 63.7188
Q20.5156 63.7188 17.0469 62.2812
Q13.5781 60.8438 11.5312 57.9062
Q11.7188 57.9531 11.8594 57.9844
Q12.0156 58.0156 12.2031 58.0156
Q14.4531 58.0156 15.9688 56.4531
Q17.4844 54.8906 17.4844 52.6875
Q17.4844 50.5312 15.9688 48.9688
Q14.4531 47.4062 12.2031 47.4062
Q10.0156 47.4062 8.45312 48.9688
Q6.89062 50.5312 6.89062 52.6875
Q6.89062 56.9844 9.46875 60.1562
Q12.0625 63.3281 16.1406 64.9688
Q20.2188 66.6094 24.3125 66.6094
Q27.3438 66.6094 30.7031 65.7031
Q34.0781 64.7969 36.8125 63.1094
Q39.5469 61.4219 41.2812 58.7812
Q43.0156 56.1562 43.0156 52.7812
Q43.0156 48.5781 41.1406 45.0156
Q39.2656 41.4531 35.9844 38.8594
Q32.7188 36.2812 28.8125 35.0156
Q33.1562 34.1875 37.0625 31.7344
Q40.9688 29.2969 43.3281 25.4844
Q45.7031 21.6875 45.7031 17.2812
Q45.7031 11.7656 42.6719 7.29688
Q39.6562 2.82812 34.7188 0.3125
Q29.7812 -2.20312 24.3125 -2.20312
Q19.625 -2.20312 14.9062 -0.40625
Q10.2031 1.375 7.20312 4.9375
Q4.20312 8.5 4.20312 13.4844
Q4.20312 15.9688 5.85938 17.625
Q7.51562 19.2812 10.0156 19.2812
Q11.625 19.2812 12.9688 18.5312
Q14.3125 17.7812 15.0625 16.4062
Q15.8281 15.0469 15.8281 13.4844
Q15.8281 11.0312 14.1094 9.375
Q12.4062 7.71875 10.0156 7.71875
z
" id="Cmr10-33"/>
      <path d="
M14.7031 2.875
Q14.7031 3.65625 15.1875 4.29688
L35.9844 25
L15.1875 45.7969
Q14.7031 46.2969 14.7031 47.125
Q14.7031 47.8594 15.2812 48.4844
Q15.875 49.125 16.7031 49.125
Q17.3906 49.125 18.2188 48.4844
L38.9219 27.7812
L59.5156 48.4844
Q60.3594 49.125 60.9844 49.125
Q61.8125 49.125 62.3906 48.5312
Q62.9844 47.9531 62.9844 47.125
Q62.9844 46.2969 62.5 45.7969
L41.7031 25
L62.5 4.29688
Q62.9844 3.65625 62.9844 2.875
Q62.9844 2.04688 62.3906 1.45312
Q61.8125 0.875 60.9844 0.875
Q60.25 0.875 59.5156 1.60938
L38.9219 22.2188
L18.2188 1.60938
Q17.4844 0.875 16.7031 0.875
Q15.875 0.875 15.2812 1.51562
Q14.7031 2.15625 14.7031 2.875" id="Cmsy10-a3"/>
      <path d="
M9.28125 0
L9.28125 3.51562
Q21.7812 3.51562 21.7812 6.6875
L21.7812 59.1875
Q16.6094 56.6875 8.6875 56.6875
L8.6875 60.2031
Q20.9531 60.2031 27.2031 66.6094
L28.6094 66.6094
Q28.9531 66.6094 29.2656 66.3281
Q29.5938 66.0625 29.5938 65.7188
L29.5938 6.6875
Q29.5938 3.51562 42.0938 3.51562
L42.0938 0
z
" id="Cmr10-31"/>
      <path d="
M25 -2.20312
Q12.75 -2.20312 8.32812 7.875
Q3.90625 17.9688 3.90625 31.8906
Q3.90625 40.5781 5.48438 48.2344
Q7.07812 55.9062 11.7812 61.25
Q16.5 66.6094 25 66.6094
Q31.5938 66.6094 35.7812 63.375
Q39.9844 60.1562 42.1875 55.0469
Q44.3906 49.9531 45.1875 44.1094
Q46 38.2812 46 31.8906
Q46 23.2969 44.4062 15.7969
Q42.8281 8.29688 38.1875 3.04688
Q33.5469 -2.20312 25 -2.20312
M25 0.390625
Q30.5625 0.390625 33.2969 6.09375
Q36.0312 11.8125 36.6719 18.75
Q37.3125 25.6875 37.3125 33.5
Q37.3125 41.0156 36.6719 47.3594
Q36.0312 53.7188 33.3125 58.8594
Q30.6094 64.0156 25 64.0156
Q19.3438 64.0156 16.6094 58.8281
Q13.875 53.6562 13.2344 47.3281
Q12.5938 41.0156 12.5938 33.5
Q12.5938 27.9375 12.8594 23
Q13.1406 18.0625 14.3125 12.8125
Q15.4844 7.5625 18.0938 3.96875
Q20.7031 0.390625 25 0.390625" id="Cmr10-30"/>
      <path d="
M7.71875 1.70312
Q7.71875 2.29688 7.8125 2.59375
L15.2812 32.4219
Q16.0156 35.2031 16.0156 37.3125
Q16.0156 41.6094 13.0938 41.6094
Q9.96875 41.6094 8.45312 37.8594
Q6.9375 34.125 5.51562 28.4219
Q5.51562 28.125 5.21875 27.9531
Q4.9375 27.7812 4.6875 27.7812
L3.51562 27.7812
Q3.17188 27.7812 2.92188 28.1406
Q2.6875 28.5156 2.6875 28.8125
Q3.76562 33.1562 4.76562 36.1719
Q5.76562 39.2031 7.89062 41.6875
Q10.0156 44.1875 13.1875 44.1875
Q16.9375 44.1875 19.8125 41.8125
Q22.7031 39.4531 22.7031 35.7969
Q25.6875 39.7031 29.6875 41.9375
Q33.6875 44.1875 38.1875 44.1875
Q42.9219 44.1875 46.3594 41.7656
Q49.8125 39.3594 49.8125 34.9062
Q52.875 39.2656 57 41.7188
Q61.1406 44.1875 66.0156 44.1875
Q71.1875 44.1875 74.3281 41.375
Q77.4844 38.5781 77.4844 33.4062
Q77.4844 29.2969 75.6562 23.4844
Q73.8281 17.6719 71.0938 10.5
Q69.6719 7.03125 69.6719 4.5
Q69.6719 1.51562 72.0156 1.51562
Q75.9219 1.51562 78.5156 5.70312
Q81.1094 9.90625 82.1719 14.7031
Q82.4688 15.2812 83.0156 15.2812
L84.1875 15.2812
Q84.5781 15.2812 84.8438 15.0156
Q85.1094 14.75 85.1094 14.4062
Q85.1094 14.3125 85.0156 14.1094
Q83.6406 8.45312 80.25 3.65625
Q76.8594 -1.125 71.7812 -1.125
Q68.2656 -1.125 65.7656 1.29688
Q63.2812 3.71875 63.2812 7.17188
Q63.2812 8.9375 64.1094 11.0781
Q66.9375 18.6094 68.8125 24.5156
Q70.7031 30.4219 70.7031 34.9062
Q70.7031 37.7031 69.5781 39.6562
Q68.4531 41.6094 65.8281 41.6094
Q60.3594 41.6094 56.3438 38.25
Q52.3438 34.9062 49.4219 29.3906
Q49.2188 28.4219 49.125 27.875
L42.6719 2.20312
Q42.3281 0.828125 41.125 -0.140625
Q39.9375 -1.125 38.4844 -1.125
Q37.3125 -1.125 36.4062 -0.34375
Q35.5 0.4375 35.5 1.70312
Q35.5 2.29688 35.5938 2.59375
L42 28.0781
Q43.0156 32.1719 43.0156 34.9062
Q43.0156 37.7031 41.8594 39.6562
Q40.7188 41.6094 37.9844 41.6094
Q34.3281 41.6094 31.25 39.9844
Q28.1719 38.375 25.875 35.7188
Q23.5781 33.0625 21.6875 29.3906
L14.8906 2.20312
Q14.5469 0.828125 13.3438 -0.140625
Q12.1562 -1.125 10.6875 -1.125
Q9.46875 -1.125 8.59375 -0.34375
Q7.71875 0.4375 7.71875 1.70312" id="Cmmi10-6d"/>
      <path d="
M52 44.1875
Q55.375 50.25 60.0625 53.125
Q64.75 56 71.0938 56
Q79.6406 56 84.2812 50.0156
Q88.9219 44.0469 88.9219 33.0156
L88.9219 0
L79.8906 0
L79.8906 32.7188
Q79.8906 40.5781 77.0938 44.375
Q74.3125 48.1875 68.6094 48.1875
Q61.625 48.1875 57.5625 43.5469
Q53.5156 38.9219 53.5156 30.9062
L53.5156 0
L44.4844 0
L44.4844 32.7188
Q44.4844 40.625 41.7031 44.4062
Q38.9219 48.1875 33.1094 48.1875
Q26.2188 48.1875 22.1562 43.5312
Q18.1094 38.875 18.1094 30.9062
L18.1094 0
L9.07812 0
L9.07812 54.6875
L18.1094 54.6875
L18.1094 46.1875
Q21.1875 51.2188 25.4844 53.6094
Q29.7812 56 35.6875 56
Q41.6562 56 45.8281 52.9688
Q50 49.9531 52 44.1875" id="DejaVuSans-6d"/>
      <path d="
M34.2812 27.4844
Q23.3906 27.4844 19.1875 25
Q14.9844 22.5156 14.9844 16.5
Q14.9844 11.7188 18.1406 8.90625
Q21.2969 6.10938 26.7031 6.10938
Q34.1875 6.10938 38.7031 11.4062
Q43.2188 16.7031 43.2188 25.4844
L43.2188 27.4844
z

M52.2031 31.2031
L52.2031 0
L43.2188 0
L43.2188 8.29688
Q40.1406 3.32812 35.5469 0.953125
Q30.9531 -1.42188 24.3125 -1.42188
Q15.9219 -1.42188 10.9531 3.29688
Q6 8.01562 6 15.9219
Q6 25.1406 12.1719 29.8281
Q18.3594 34.5156 30.6094 34.5156
L43.2188 34.5156
L43.2188 35.4062
Q43.2188 41.6094 39.1406 45
Q35.0625 48.3906 27.6875 48.3906
Q23 48.3906 18.5469 47.2656
Q14.1094 46.1406 10.0156 43.8906
L10.0156 52.2031
Q14.9375 54.1094 19.5781 55.0469
Q24.2188 56 28.6094 56
Q40.4844 56 46.3438 49.8438
Q52.2031 43.7031 52.2031 31.2031
M21.9219 79.9844
L35.6875 61.7188
L28.2188 61.7188
L12.2969 79.9844
z
" id="DejaVuSans-e0"/>
      <path d="
M9.42188 75.9844
L18.4062 75.9844
L18.4062 0
L9.42188 0
z
" id="DejaVuSans-6c"/>
      <path d="
M28.6094 0
L0.78125 72.9062
L11.0781 72.9062
L34.1875 11.5312
L57.3281 72.9062
L67.5781 72.9062
L39.7969 0
z
" id="DejaVuSans-56"/>
      <path d="
M8.6875 6.10938
Q11.375 1.51562 19.4844 1.51562
Q23 1.51562 26.1719 2.70312
Q29.3438 3.90625 31.4219 6.29688
Q33.5 8.6875 33.5 12.1094
Q33.5 14.7031 31.6406 16.3594
Q29.7812 18.0156 27.0938 18.6094
L21.6875 19.6719
Q17.9688 20.6094 15.5781 23.1406
Q13.1875 25.6875 13.1875 29.2969
Q13.1875 33.7344 15.5938 37.1562
Q18.0156 40.5781 21.9688 42.375
Q25.9219 44.1875 30.1719 44.1875
Q34.7188 44.1875 38.2969 42.0156
Q41.8906 39.8438 41.8906 35.5938
Q41.8906 33.2969 40.5938 31.5312
Q39.3125 29.7812 37.0156 29.7812
Q35.6875 29.7812 34.7344 30.6406
Q33.7969 31.5 33.7969 32.8125
Q33.7969 33.9844 34.4531 35.0781
Q35.1094 36.1875 36.2031 36.8438
Q37.3125 37.5 38.4844 37.5
Q37.5938 39.6562 35.1719 40.625
Q32.7656 41.6094 29.9844 41.6094
Q27.4375 41.6094 24.8906 40.5781
Q22.3594 39.5469 20.8125 37.5625
Q19.2812 35.5938 19.2812 32.9062
Q19.2812 31.1094 20.5469 29.7344
Q21.8281 28.375 23.6875 27.7812
L29.5 26.6094
Q32.2812 26.0312 34.5938 24.5312
Q36.9219 23.0469 38.25 20.7656
Q39.5938 18.5 39.5938 15.5781
Q39.5938 11.8594 37.5156 8.25
Q35.4531 4.64062 32.4219 2.48438
Q27.0938 -1.125 19.3906 -1.125
Q14.0625 -1.125 9.60938 1.3125
Q5.17188 3.76562 5.17188 8.59375
Q5.17188 11.3281 6.75 13.3438
Q8.34375 15.375 11.0781 15.375
Q12.7031 15.375 13.7969 14.3906
Q14.8906 13.4219 14.8906 11.8125
Q14.8906 9.51562 13.1719 7.8125
Q11.4688 6.10938 9.1875 6.10938
z
" id="Cmmi10-73"/>
      <path d="
M10.2031 23
Q9.375 23 8.82812 23.625
Q8.29688 24.2656 8.29688 25
Q8.29688 25.7344 8.82812 26.3594
Q9.375 27 10.2031 27
L67.5781 27
Q68.3594 27 68.875 26.3594
Q69.3906 25.7344 69.3906 25
Q69.3906 24.2656 68.875 23.625
Q68.3594 23 67.5781 23
z
" id="Cmsy10-a1"/>
      <path d="
M45.4062 27.9844
Q45.4062 37.75 41.375 43.1094
Q37.3594 48.4844 30.0781 48.4844
Q22.8594 48.4844 18.8281 43.1094
Q14.7969 37.75 14.7969 27.9844
Q14.7969 18.2656 18.8281 12.8906
Q22.8594 7.51562 30.0781 7.51562
Q37.3594 7.51562 41.375 12.8906
Q45.4062 18.2656 45.4062 27.9844
M54.3906 6.78125
Q54.3906 -7.17188 48.1875 -13.9844
Q42 -20.7969 29.2031 -20.7969
Q24.4688 -20.7969 20.2656 -20.0938
Q16.0625 -19.3906 12.1094 -17.9219
L12.1094 -9.1875
Q16.0625 -11.3281 19.9219 -12.3438
Q23.7812 -13.375 27.7812 -13.375
Q36.625 -13.375 41.0156 -8.76562
Q45.4062 -4.15625 45.4062 5.17188
L45.4062 9.625
Q42.625 4.78125 38.2812 2.39062
Q33.9375 0 27.875 0
Q17.8281 0 11.6719 7.65625
Q5.51562 15.3281 5.51562 27.9844
Q5.51562 40.6719 11.6719 48.3281
Q17.8281 56 27.875 56
Q33.9375 56 38.2812 53.6094
Q42.625 51.2188 45.4062 46.3906
L45.4062 54.6875
L54.3906 54.6875
z
" id="DejaVuSans-67"/>
      <path d="
M53.5156 70.5156
L53.5156 60.8906
Q47.9062 63.5781 42.9219 64.8906
Q37.9375 66.2188 33.2969 66.2188
Q25.25 66.2188 20.875 63.0938
Q16.5 59.9688 16.5 54.2031
Q16.5 49.3594 19.4062 46.8906
Q22.3125 44.4375 30.4219 42.9219
L36.375 41.7031
Q47.4062 39.5938 52.6562 34.2969
Q57.9062 29 57.9062 20.125
Q57.9062 9.51562 50.7969 4.04688
Q43.7031 -1.42188 29.9844 -1.42188
Q24.8125 -1.42188 18.9688 -0.25
Q13.1406 0.921875 6.89062 3.21875
L6.89062 13.375
Q12.8906 10.0156 18.6562 8.29688
Q24.4219 6.59375 29.9844 6.59375
Q38.4219 6.59375 43.0156 9.90625
Q47.6094 13.2344 47.6094 19.3906
Q47.6094 24.75 44.3125 27.7812
Q41.0156 30.8125 33.5 32.3281
L27.4844 33.5
Q16.4531 35.6875 11.5156 40.375
Q6.59375 45.0625 6.59375 53.4219
Q6.59375 63.0938 13.4062 68.6562
Q20.2188 74.2188 32.1719 74.2188
Q37.3125 74.2188 42.625 73.2812
Q47.9531 72.3594 53.5156 70.5156" id="DejaVuSans-53"/>
      <path d="
M18.3125 70.2188
L18.3125 54.6875
L36.8125 54.6875
L36.8125 47.7031
L18.3125 47.7031
L18.3125 18.0156
Q18.3125 11.3281 20.1406 9.42188
Q21.9688 7.51562 27.5938 7.51562
L36.8125 7.51562
L36.8125 0
L27.5938 0
Q17.1875 0 13.2344 3.875
Q9.28125 7.76562 9.28125 18.0156
L9.28125 47.7031
L2.6875 47.7031
L2.6875 54.6875
L9.28125 54.6875
L9.28125 70.2188
z
" id="DejaVuSans-74"/>
      <path d="
M45.4062 46.3906
L45.4062 75.9844
L54.3906 75.9844
L54.3906 0
L45.4062 0
L45.4062 8.20312
Q42.5781 3.32812 38.25 0.953125
Q33.9375 -1.42188 27.875 -1.42188
Q17.9688 -1.42188 11.7344 6.48438
Q5.51562 14.4062 5.51562 27.2969
Q5.51562 40.1875 11.7344 48.0938
Q17.9688 56 27.875 56
Q33.9375 56 38.25 53.625
Q42.5781 51.2656 45.4062 46.3906
M14.7969 27.2969
Q14.7969 17.3906 18.875 11.75
Q22.9531 6.10938 30.0781 6.10938
Q37.2031 6.10938 41.2969 11.75
Q45.4062 17.3906 45.4062 27.2969
Q45.4062 37.2031 41.2969 42.8438
Q37.2031 48.4844 30.0781 48.4844
Q22.9531 48.4844 18.875 42.8438
Q14.7969 37.2031 14.7969 27.2969" id="DejaVuSans-64"/>
      <path d="
M48.7812 52.5938
L48.7812 44.1875
Q44.9688 46.2969 41.1406 47.3438
Q37.3125 48.3906 33.4062 48.3906
Q24.6562 48.3906 19.8125 42.8438
Q14.9844 37.3125 14.9844 27.2969
Q14.9844 17.2812 19.8125 11.7344
Q24.6562 6.20312 33.4062 6.20312
Q37.3125 6.20312 41.1406 7.25
Q44.9688 8.29688 48.7812 10.4062
L48.7812 2.09375
Q45.0156 0.34375 40.9844 -0.53125
Q36.9688 -1.42188 32.4219 -1.42188
Q20.0625 -1.42188 12.7812 6.34375
Q5.51562 14.1094 5.51562 27.2969
Q5.51562 40.6719 12.8594 48.3281
Q20.2188 56 33.0156 56
Q37.1562 56 41.1094 55.1406
Q45.0625 54.2969 48.7812 52.5938" id="DejaVuSans-63"/>
      <path d="
M18.1094 8.20312
L18.1094 -20.7969
L9.07812 -20.7969
L9.07812 54.6875
L18.1094 54.6875
L18.1094 46.3906
Q20.9531 51.2656 25.2656 53.625
Q29.5938 56 35.5938 56
Q45.5625 56 51.7812 48.0938
Q58.0156 40.1875 58.0156 27.2969
Q58.0156 14.4062 51.7812 6.48438
Q45.5625 -1.42188 35.5938 -1.42188
Q29.5938 -1.42188 25.2656 0.953125
Q20.9531 3.32812 18.1094 8.20312
M48.6875 27.2969
Q48.6875 37.2031 44.6094 42.8438
Q40.5312 48.4844 33.4062 48.4844
Q26.2656 48.4844 22.1875 42.8438
Q18.1094 37.2031 18.1094 27.2969
Q18.1094 17.3906 22.1875 11.75
Q26.2656 6.10938 33.4062 6.10938
Q40.5312 6.10938 44.6094 11.75
Q48.6875 17.3906 48.6875 27.2969" id="DejaVuSans-70"/>
     </defs>
     <g transform="translate(49.01375 414.01)rotate(-90.0)scale(0.14 -0.14)">
      <use transform="translate(0.0 21.8578125)" xlink:href="#DejaVuSans-56"/>
      <use transform="translate(68.408203125 21.8578125)" xlink:href="#DejaVuSans-65"/>
      <use transform="translate(129.931640625 21.8578125)" xlink:href="#DejaVuSans-6c"/>
      <use transform="translate(157.71484375 21.8578125)" xlink:href="#DejaVuSans-6f"/>
      <use transform="translate(218.896484375 21.8578125)" xlink:href="#DejaVuSans-63"/>
      <use transform="translate(273.876953125 21.8578125)" xlink:href="#DejaVuSans-69"/>
      <use transform="translate(301.66015625 21.8578125)" xlink:href="#DejaVuSans-74"/>
      <use transform="translate(340.869140625 21.8578125)" xlink:href="#DejaVuSans-e0"/>
      <use transform="translate(402.1484375 21.8578125)" xlink:href="#DejaVuSans-20"/>
      <use transform="translate(433.935546875 21.8578125)" xlink:href="#DejaVuSans-64"/>
      <use transform="translate(497.412109375 21.8578125)" xlink:href="#DejaVuSans-69"/>
      <use transform="translate(525.1953125 21.8578125)" xlink:href="#DejaVuSans-20"/>
      <use transform="translate(556.982421875 21.8578125)" xlink:href="#DejaVuSans-70"/>
      <use transform="translate(620.458984375 21.8578125)" xlink:href="#DejaVuSans-6f"/>
      <use transform="translate(681.640625 21.8578125)" xlink:href="#DejaVuSans-6d"/>
      <use transform="translate(779.052734375 21.8578125)" xlink:href="#DejaVuSans-70"/>
      <use transform="translate(842.529296875 21.8578125)" xlink:href="#DejaVuSans-61"/>
      <use transform="translate(903.80859375 21.8578125)" xlink:href="#DejaVuSans-67"/>
      <use transform="translate(967.28515625 21.8578125)" xlink:href="#DejaVuSans-67"/>
      <use transform="translate(1030.76171875 21.8578125)" xlink:href="#DejaVuSans-69"/>
      <use transform="translate(1058.54492188 21.8578125)" xlink:href="#DejaVuSans-6f"/>
      <use transform="translate(1119.7265625 21.8578125)" xlink:href="#DejaVuSans-20"/>
      <use transform="translate(1151.51367188 21.8578125)" xlink:href="#DejaVuSans-53"/>
      <use transform="translate(1214.99023438 21.8578125)" xlink:href="#DejaVuSans-20"/>
      <use transform="translate(1246.77734375 21.8578125)" xlink:href="#DejaVuSans-5b"/>
      <use transform="translate(1303.34960938 21.8578125)" xlink:href="#Cmsy10-a3"/>
      <use transform="translate(1369.18945312 21.8578125)" xlink:href="#Cmr10-31"/>
      <use transform="translate(1419.18945312 21.8578125)" xlink:href="#Cmr10-30"/>
      <use transform="translate(1469.18945312 64.3734375)scale(0.7)" xlink:href="#Cmsy10-a1"/>
      <use transform="translate(1523.56933594 64.3734375)scale(0.7)" xlink:href="#Cmr10-33"/>
      <use transform="translate(1645.80996094 21.8578125)" xlink:href="#Cmmi10-6d"/>
      <use transform="translate(1733.60292969 64.3734375)scale(0.7)" xlink:href="#Cmr10-33"/>
      <use transform="translate(1800.60917969 21.8578125)" xlink:href="#Cmmi10-73"/>
      <use transform="translate(1847.38652344 64.3734375)scale(0.7)" xlink:href="#Cmsy10-a1"/>
      <use transform="translate(1901.76640625 64.3734375)scale(0.7)" xlink:href="#Cmr10-31"/>
      <use transform="translate(1953.77265625 21.8578125)" xlink:href="#DejaVuSans-5d"/>
     </g>
    </g>
   </g>
   <g id="patch_3">
    <path d="
M72.9 54.9
L692.55 54.9" style="fill:none;stroke:#000000;"/>
   </g>
   <g id="patch_4">
    <path d="
M692.55 494.1
L692.55 54.9" style="fill:none;stroke:#000000;"/>
   </g>
   <g id="patch_5">
    <path d="
M72.9 494.1
L692.55 494.1" style="fill:none;stroke:#000000;"/>
   </g>
   <g id="patch_6">
    <path d="
M72.9 494.1
L72.9 54.9" style="fill:none;stroke:#000000;"/>
   </g>
  </g>
  <g id="text_14">
   <!-- Velocità di pompaggio pompa turbomolecolare -->
   <defs>
    <path d="
M8.5 21.5781
L8.5 54.6875
L17.4844 54.6875
L17.4844 21.9219
Q17.4844 14.1562 20.5 10.2656
Q23.5312 6.39062 29.5938 6.39062
Q36.8594 6.39062 41.0781 11.0312
Q45.3125 15.6719 45.3125 23.6875
L45.3125 54.6875
L54.2969 54.6875
L54.2969 0
L45.3125 0
L45.3125 8.40625
Q42.0469 3.42188 37.7188 1
Q33.4062 -1.42188 27.6875 -1.42188
Q18.2656 -1.42188 13.375 4.4375
Q8.5 10.2969 8.5 21.5781
M31.1094 56
z
" id="DejaVuSans-75"/>
    <path d="
M48.6875 27.2969
Q48.6875 37.2031 44.6094 42.8438
Q40.5312 48.4844 33.4062 48.4844
Q26.2656 48.4844 22.1875 42.8438
Q18.1094 37.2031 18.1094 27.2969
Q18.1094 17.3906 22.1875 11.75
Q26.2656 6.10938 33.4062 6.10938
Q40.5312 6.10938 44.6094 11.75
Q48.6875 17.3906 48.6875 27.2969
M18.1094 46.3906
Q20.9531 51.2656 25.2656 53.625
Q29.5938 56 35.5938 56
Q45.5625 56 51.7812 48.0938
Q58.0156 40.1875 58.0156 27.2969
Q58.0156 14.4062 51.7812 6.48438
Q45.5625 -1.42188 35.5938 -1.42188
Q29.5938 -1.42188 25.2656 0.953125
Q20.9531 3.32812 18.1094 8.20312
L18.1094 0
L9.07812 0
L9.07812 75.9844
L18.1094 75.9844
z
" id="DejaVuSans-62"/>
   </defs>
   <g transform="translate(177.38125 34.7575)scale(0.16 -0.16)">
    <use xlink:href="#DejaVuSans-56"/>
    <use x="60.658203125" xlink:href="#DejaVuSans-65"/>
    <use x="122.181640625" xlink:href="#DejaVuSans-6c"/>
    <use x="149.96484375" xlink:href="#DejaVuSans-6f"/>
    <use x="211.146484375" xlink:href="#DejaVuSans-63"/>
    <use x="266.126953125" xlink:href="#DejaVuSans-69"/>
    <use x="293.91015625" xlink:href="#DejaVuSans-74"/>
    <use x="333.119140625" xlink:href="#DejaVuSans-e0"/>
    <use x="394.3984375" xlink:href="#DejaVuSans-20"/>
    <use x="426.185546875" xlink:href="#DejaVuSans-64"/>
    <use x="489.662109375" xlink:href="#DejaVuSans-69"/>
    <use x="517.4453125" xlink:href="#DejaVuSans-20"/>
    <use x="549.232421875" xlink:href="#DejaVuSans-70"/>
    <use x="612.708984375" xlink:href="#DejaVuSans-6f"/>
    <use x="673.890625" xlink:href="#DejaVuSans-6d"/>
    <use x="771.302734375" xlink:href="#DejaVuSans-70"/>
    <use x="834.779296875" xlink:href="#DejaVuSans-61"/>
    <use x="896.05859375" xlink:href="#DejaVuSans-67"/>
    <use x="959.53515625" xlink:href="#DejaVuSans-67"/>
    <use x="1023.01171875" xlink:href="#DejaVuSans-69"/>
    <use x="1050.79492188" xlink:href="#DejaVuSans-6f"/>
    <use x="1111.9765625" xlink:href="#DejaVuSans-20"/>
    <use x="1143.76367188" xlink:href="#DejaVuSans-70"/>
    <use x="1207.24023438" xlink:href="#DejaVuSans-6f"/>
    <use x="1268.421875" xlink:href="#DejaVuSans-6d"/>
    <use x="1365.83398438" xlink:href="#DejaVuSans-70"/>
    <use x="1429.31054688" xlink:href="#DejaVuSans-61"/>
    <use x="1490.58984375" xlink:href="#DejaVuSans-20"/>
    <use x="1522.37695312" xlink:href="#DejaVuSans-74"/>
    <use x="1561.5859375" xlink:href="#DejaVuSans-75"/>
    <use x="1624.96484375" xlink:href="#DejaVuSans-72"/>
    <use x="1666.078125" xlink:href="#DejaVuSans-62"/>
    <use x="1729.5546875" xlink:href="#DejaVuSans-6f"/>
    <use x="1790.73632812" xlink:href="#DejaVuSans-6d"/>
    <use x="1888.1484375" xlink:href="#DejaVuSans-6f"/>
    <use x="1949.33007812" xlink:href="#DejaVuSans-6c"/>
    <use x="1977.11328125" xlink:href="#DejaVuSans-65"/>
    <use x="2038.63671875" xlink:href="#DejaVuSans-63"/>
    <use x="2093.6171875" xlink:href="#DejaVuSans-6f"/>
    <use x="2154.79882812" xlink:href="#DejaVuSans-6c"/>
    <use x="2182.58203125" xlink:href="#DejaVuSans-61"/>
    <use x="2243.86132812" xlink:href="#DejaVuSans-72"/>
    <use x="2282.72460938" xlink:href="#DejaVuSans-65"/>
   </g>
  </g>
 </g>
 <defs>
  <clipPath id="p1843e9562e">
   <rect height="439.2" width="619.65" x="72.9" y="54.9"/>
  </clipPath>
 </defs>
</svg>
